<svg width="24" height="24" viewBox="0 0 24 24" fill="none" xmlns="http://www.w3.org/2000/svg">
<path d="M8.6002 14.12L13.1902 18.71C13.3776 18.8963 13.631 19.0008 13.8952 19.0008C14.1594 19.0008 14.4128 18.8963 14.6002 18.71C14.6939 18.617 14.7683 18.5064 14.8191 18.3846C14.8699 18.2627 14.896 18.132 14.896 18C14.896 17.868 14.8699 17.7373 14.8191 17.6154C14.7683 17.4936 14.6939 17.383 14.6002 17.29L10.0002 12.71C9.90647 12.617 9.83208 12.5064 9.78131 12.3846C9.73054 12.2627 9.7044 12.132 9.7044 12C9.7044 11.868 9.73054 11.7373 9.78131 11.6154C9.83208 11.4936 9.90647 11.383 10.0002 11.29L14.6002 6.71C14.7885 6.52302 14.8948 6.2689 14.8958 6.00354C14.8967 5.73817 14.7922 5.4833 14.6052 5.295C14.4182 5.1067 14.1641 5.00038 13.8987 4.99944C13.6334 4.9985 13.3785 5.10302 13.1902 5.29L8.6002 9.88C8.0384 10.4425 7.72284 11.205 7.72284 12C7.72284 12.795 8.0384 13.5575 8.6002 14.12Z" fill="#6F6F6F"/>
</svg>
