<svg width="43" height="44" viewBox="0 0 43 44" fill="none" xmlns="http://www.w3.org/2000/svg">
<path d="M21.3787 43.3787C33.1858 43.3787 42.7573 33.8071 42.7573 22C42.7573 10.1929 33.1858 0.621338 21.3787 0.621338C9.57155 0.621338 0 10.1929 0 22C0 33.8071 9.57155 43.3787 21.3787 43.3787Z" fill="#23202A"/>
<path d="M27.8491 24.4433C26.35 22.9441 23.9197 22.9439 22.4209 24.4427C20.9221 25.9415 20.9223 28.3718 22.4215 29.8709L28.6154 36.0649C30.1145 37.564 32.5449 37.5643 34.0437 36.0655C35.5425 34.5667 35.5422 32.1363 34.043 30.6372L27.8491 24.4433Z" fill="white"/>
<path d="M31.1897 35.0125C32.1952 35.0125 33.0103 34.1974 33.0103 33.1919C33.0103 32.1864 32.1952 31.3713 31.1897 31.3713C30.1842 31.3713 29.3691 32.1864 29.3691 33.1919C29.3691 34.1974 30.1842 35.0125 31.1897 35.0125Z" fill="#CE202E"/>
</svg>
