<svg width="18" height="18" viewBox="0 0 18 18" fill="none" xmlns="http://www.w3.org/2000/svg">
<path d="M15.7467 8.78459L16.6834 8.75459C16.6789 8.61124 16.6416 8.47084 16.5743 8.34419C16.507 8.21754 16.4115 8.10802 16.2953 8.02405C16.179 7.94009 16.045 7.88392 15.9036 7.85987C15.7622 7.83583 15.6172 7.84454 15.4797 7.88534L15.7467 8.78459ZM9.21645 2.25434L10.1149 2.52059C10.1558 2.38304 10.1645 2.23795 10.1404 2.09651C10.1163 1.95506 10.0601 1.82103 9.976 1.70474C9.89196 1.58846 9.78234 1.49301 9.65559 1.42576C9.52885 1.35851 9.38836 1.32125 9.24495 1.31684L9.21645 2.25434ZM15.4797 7.88534C15.0806 8.00308 14.6658 8.06294 14.2497 8.06309V9.93809C14.8466 9.93807 15.4405 9.85219 16.0129 9.68309L15.4797 7.88534ZM14.2497 8.06309C13.106 8.06309 12.009 7.60874 11.2003 6.79999C10.3915 5.99124 9.9372 4.89434 9.9372 3.75059H8.0622C8.0622 5.39162 8.71409 6.96543 9.87447 8.12581C11.0349 9.2862 12.6087 9.93809 14.2497 9.93809V8.06309ZM9.9372 3.75059C9.9372 3.32159 9.99945 2.90909 10.1149 2.52059L8.3172 1.98809C8.14816 2.56033 8.06229 3.15391 8.0622 3.75059H9.9372ZM8.9997 3.18809C9.0617 3.18809 9.1242 3.18909 9.1872 3.19109L9.2457 1.31684C9.16372 1.31425 9.08171 1.313 8.9997 1.31309V3.18809ZM3.1872 9.00059C3.1872 7.45902 3.79958 5.98059 4.88964 4.89053C5.97969 3.80048 7.45813 3.18809 8.9997 3.18809V1.31309C4.7547 1.31309 1.31219 4.75559 1.31219 9.00059H3.1872ZM8.9997 14.8131C7.45813 14.8131 5.97969 14.2007 4.88964 13.1107C3.79958 12.0206 3.1872 10.5422 3.1872 9.00059H1.31219C1.31219 13.2456 4.7547 16.6881 8.9997 16.6881V14.8131ZM14.8122 9.00059C14.8122 10.5422 14.1998 12.0206 13.1098 13.1107C12.0197 14.2007 10.5413 14.8131 8.9997 14.8131V16.6881C13.2447 16.6881 16.6872 13.2456 16.6872 9.00059H14.8122ZM14.8092 8.81309C14.8112 8.87609 14.8122 8.93859 14.8122 9.00059H16.6872C16.6872 8.91809 16.6859 8.83609 16.6834 8.75459L14.8092 8.81309Z" fill="#515151"/>
</svg>
