<svg width="18" height="18" viewBox="0 0 18 18" fill="none" xmlns="http://www.w3.org/2000/svg">
<g clip-path="url(#clip0_830_164)">
<path d="M16.916 10.2466L15.491 5.11956C15.0733 3.61756 14.1655 2.29828 12.912 1.37141C11.6584 0.444551 10.131 -0.0366986 8.57259 0.00416145C7.01413 0.0450215 5.51405 0.605647 4.31079 1.59692C3.10753 2.5882 2.27015 3.95324 1.93174 5.47506L0.828492 10.4363C0.706629 10.9845 0.709446 11.5531 0.836737 12.1001C0.964027 12.647 1.21254 13.1584 1.56393 13.5965C1.91532 14.0345 2.36061 14.3881 2.86693 14.631C3.37324 14.874 3.92766 15.0001 4.48924 15.0001H5.32474C5.49688 15.8478 5.95679 16.6099 6.62655 17.1573C7.29631 17.7048 8.13473 18.0038 8.99974 18.0038C9.86476 18.0038 10.7032 17.7048 11.3729 17.1573C12.0427 16.6099 12.5026 15.8478 12.6747 15.0001H13.3032C13.8813 15.0001 14.4516 14.8665 14.9696 14.6096C15.4875 14.3528 15.939 13.9797 16.2889 13.5195C16.6387 13.0592 16.8774 12.5243 16.9863 11.9566C17.0953 11.3888 17.0707 10.8036 16.916 10.2466ZM8.99974 16.5001C8.53605 16.4981 8.08427 16.353 7.70622 16.0845C7.32817 15.816 7.0423 15.4372 6.88774 15.0001H11.1117C10.9572 15.4372 10.6713 15.816 10.2933 16.0845C9.91521 16.353 9.46344 16.4981 8.99974 16.5001ZM15.0942 12.6113C14.8852 12.8886 14.6145 13.1133 14.3034 13.2675C13.9924 13.4218 13.6497 13.5014 13.3025 13.5001H4.48924C4.15233 13.5 3.81973 13.4243 3.516 13.2785C3.21226 13.1327 2.94515 12.9206 2.73436 12.6577C2.52358 12.3949 2.37451 12.0881 2.29816 11.7599C2.22181 11.4318 2.22013 11.0907 2.29324 10.7618L3.39574 5.79981C3.66151 4.60447 4.31922 3.53226 5.26433 2.75365C6.20945 1.97503 7.38771 1.53469 8.61182 1.50262C9.83593 1.47055 11.0356 1.8486 12.0202 2.57666C13.0048 3.30473 13.7178 4.34102 14.0457 5.52081L15.4707 10.6478C15.5649 10.9818 15.5799 11.3332 15.5145 11.6741C15.4492 12.0149 15.3053 12.3358 15.0942 12.6113Z" fill="#515151"/>
</g>
<defs>
<clipPath id="clip0_830_164">
<rect width="18" height="18" fill="white"/>
</clipPath>
</defs>
</svg>
