<svg width="16" height="16" viewBox="0 0 16 16" fill="none" xmlns="http://www.w3.org/2000/svg">
<path d="M11.3334 5.34333V3.34333C11.3334 3.16652 11.2631 2.99695 11.1381 2.87193C11.0131 2.7469 10.8435 2.67667 10.6667 2.67667H4.00002C3.6464 2.67667 3.30726 2.81714 3.05721 3.06719C2.80716 3.31724 2.66669 3.65638 2.66669 4.01M2.66669 4.01C2.66669 4.36362 2.80716 4.70276 3.05721 4.95281C3.30726 5.20286 3.6464 5.34333 4.00002 5.34333H12C12.1768 5.34333 12.3464 5.41357 12.4714 5.5386C12.5964 5.66362 12.6667 5.83319 12.6667 6.01V8.01M2.66669 4.01V12.01C2.66669 12.3636 2.80716 12.7028 3.05721 12.9528C3.30726 13.2029 3.6464 13.3433 4.00002 13.3433H12C12.1768 13.3433 12.3464 13.2731 12.4714 13.1481C12.5964 13.023 12.6667 12.8535 12.6667 12.6767V10.6767" stroke="#6F6F6F" stroke-linecap="round" stroke-linejoin="round"/>
<path d="M13.3333 8.01001V10.6767H10.6666C10.313 10.6767 9.97389 10.5362 9.72384 10.2862C9.47379 10.0361 9.33331 9.69697 9.33331 9.34334C9.33331 8.98972 9.47379 8.65058 9.72384 8.40053C9.97389 8.15049 10.313 8.01001 10.6666 8.01001H13.3333Z" stroke="#6F6F6F" stroke-linecap="round" stroke-linejoin="round"/>
</svg>
